<?xml version="1.0" encoding="UTF-8" standalone="no"?>
<svg
   xmlns:dc="http://purl.org/dc/elements/1.1/"
   xmlns:cc="http://creativecommons.org/ns#"
   xmlns:rdf="http://www.w3.org/1999/02/22-rdf-syntax-ns#"
   xmlns:svg="http://www.w3.org/2000/svg"
   xmlns="http://www.w3.org/2000/svg"
   viewBox="0 0 2000 2000"
   height="2000"
   width="2000"
   xml:space="preserve"
   id="svg2"
   version="1.1"><metadata
     id="metadata8"><rdf:RDF><cc:Work
         rdf:about=""><dc:format>image/svg+xml</dc:format><dc:type
           rdf:resource="http://purl.org/dc/dcmitype/StillImage" /></cc:Work></rdf:RDF></metadata><defs
     id="defs6"><clipPath
       id="clipPath18"
       clipPathUnits="userSpaceOnUse"><path
         id="path16"
         d="M 0,1500 H 1500 V 0 H 0 Z" /></clipPath><clipPath
       id="clipPath26"
       clipPathUnits="userSpaceOnUse"><path
         id="path24"
         d="M 150,1310.02 H 1350 V 189.982 H 150 Z" /></clipPath><clipPath
       id="clipPath46"
       clipPathUnits="userSpaceOnUse"><path
         id="path44"
         d="m 1216.67,1265.67 h 66.67 v -98.64 h -66.67 z" /></clipPath><clipPath
       id="clipPath62"
       clipPathUnits="userSpaceOnUse"><path
         id="path60"
         d="M 216.663,1265.88 H 283.33 V 1167.2 H 216.663 Z" /></clipPath><clipPath
       id="clipPath78"
       clipPathUnits="userSpaceOnUse"><path
         id="path76"
         d="M 216.662,1238.85 H 1283.34 V 264.058 H 216.662 Z" /></clipPath></defs><g
     transform="matrix(1.3333333,0,0,-1.3333333,0,2000)"
     id="g10"><g
       id="g12"><g
         clip-path="url(#clipPath18)"
         id="g14"><g
           id="g20"><g
             id="g22" /><g
             id="g38"><g
               style="opacity:0.30000299"
               id="g36"
               clip-path="url(#clipPath26)"><g
                 id="g30"
                 transform="translate(416.6606,1184.416)"><path
                   id="path28"
                   style="fill:#ffffff;fill-opacity:1;fill-rule:nonzero;stroke:none"
                   d="m 0,0 66.667,-27.02 66.667,-27.02 66.667,-27.02 66.667,-27.019 66.668,-27.02 0.258,-0.105 66.408,26.916 66.668,27.02 66.667,27.021 66.667,27.02 66.667,27.021 26.817,10.869 39.85,16.159 66.667,27.033 10e-4,71.478 L 733.338,98.254 666.671,71.177 600.004,44.099 533.337,17.021 466.67,-10.058 400.002,-37.136 333.631,-64.094 333.336,-63.973 266.668,-36.892 200.001,-9.809 133.334,17.273 66.667,44.355 0,71.438 -66.667,98.52 -133.334,125.602 V 54.04 l 66.667,-27.02 z" /></g><g
                 id="g34"
                 transform="translate(1349.9971,719.1611)"><path
                   id="path32"
                   style="fill:#ffffff;fill-opacity:1;fill-rule:nonzero;stroke:none"
                   d="m 0,0 -0.004,71.646 -0.003,71.645 -0.003,71.646 -0.003,71.646 -0.003,71.645 -0.003,71.646 -0.003,71.645 -66.623,-27.015 0.01,-71.643 0.01,-71.643 0.011,-71.642 0.01,-71.643 0.009,-71.643 0.01,-71.643 0.01,-71.643 0.01,-71.643 0.009,-71.643 0.011,-71.642 v -0.126 l -0.119,-0.048 -24.198,-9.686 -42.469,-17.003 -66.668,-26.689 -66.668,-26.688 -66.667,-26.689 -66.667,-26.689 -66.667,-26.687 -66.667,-26.69 -66.408,-26.585 -0.259,0.105 -66.667,26.688 -66.668,26.689 -66.667,26.687 -66.667,26.689 -66.667,26.688 -66.667,26.688 -66.667,26.689 -47.282,18.928 -19.266,7.713 v 0.099 l -0.12,0.049 v 71.646 71.647 71.647 l 10e-4,71.647 v 71.647 71.647 71.646 65.381 l -10e-4,6.267 -0.015,71.653 -0.015,71.652 -66.627,27.018 V 430.059 358.412 286.765 215.118 143.471 71.824 0.178 -71.47 v -71.646 -71.648 -71.646 l 41.736,-16.924 24.921,-10.076 66.668,-26.956 66.667,-26.956 66.667,-26.956 66.667,-26.956 66.667,-26.956 66.667,-26.956 66.668,-26.957 66.667,-26.956 0.297,-0.121 66.37,26.838 66.667,26.957 66.667,26.958 66.667,26.958 66.667,26.957 66.668,26.958 66.667,26.957 49.558,20.039 17.109,6.938 66.668,27.034 v 71.647 71.646 70.786 0.861 z" /></g></g></g></g><g
           id="g40"><g
             id="g42" /><g
             id="g54"><g
               style="opacity:0.30000299"
               id="g52"
               clip-path="url(#clipPath46)"><g
                 id="g50"
                 transform="translate(1216.6709,1167.0249)"><path
                   id="path48"
                   style="fill:#ffffff;fill-opacity:1;fill-rule:nonzero;stroke:none"
                   d="M 0,0 66.667,27.034 V 98.647 L 0,71.627 Z" /></g></g></g></g><g
           id="g56"><g
             id="g58" /><g
             id="g70"><g
               style="opacity:0.30000299"
               id="g68"
               clip-path="url(#clipPath62)"><g
                 id="g66"
                 transform="translate(283.3301,1167.2046)"><path
                   id="path64"
                   style="fill:#ffffff;fill-opacity:1;fill-rule:nonzero;stroke:none"
                   d="M 0,0 V 71.647 L -25.126,81.835 -66.667,98.672 V 27.033 Z" /></g></g></g></g><g
           id="g72"><g
             id="g74" /><g
             id="g90"><g
               style="opacity:0.80000299"
               id="g88"
               clip-path="url(#clipPath78)"><g
                 id="g82"
                 transform="translate(411.4536,1115.251)"><path
                   id="path80"
                   style="fill:#ffffff;fill-opacity:1;fill-rule:nonzero;stroke:none"
                   d="m 0,0 5.211,-2.103 66.667,-26.913 66.667,-26.913 66.667,-26.912 66.667,-26.913 66.667,-26.913 0.222,-0.089 66.446,26.835 66.667,26.924 66.667,26.925 66.667,26.925 66.667,26.924 42.746,17.264 23.921,9.7 66.668,27.033 v 71.627 L 738.549,96.38 698.699,80.229 671.882,69.355 605.215,42.321 538.548,15.289 l -66.667,-27.034 -66.667,-27.033 -66.446,-26.944 -0.221,0.09 -66.668,27.033 -66.667,27.034 -66.667,27.033 -66.667,27.033 -66.667,27.033 -66.667,27.033 -66.668,27.034 V 51.954 L -61.456,24.92 Z" /></g><g
                 id="g86"
                 transform="translate(1216.6709,1167.0254)"><path
                   id="path84"
                   style="fill:#ffffff;fill-opacity:1;fill-rule:nonzero;stroke:none"
                   d="m 0,0 v -0.147 l 0.009,0.002 v -71.499 -71.647 -71.646 -71.647 -71.647 -71.647 -71.646 -71.648 -71.495 l -0.01,-0.004 v -0.151 l -66.667,-27.033 -66.668,-27.035 -66.668,-27.032 -66.667,-27.033 -66.667,-27.033 -66.667,-27.034 -66.445,-26.943 -0.222,0.091 -66.667,27.032 -66.667,27.033 -66.668,27.034 -66.667,27.034 -66.667,27.032 -66.667,27.033 -66.667,27.033 v 71.648 71.646 l 10e-4,71.647 v 71.647 71.647 71.647 71.647 71.646 71.647 l -66.667,27.033 -10e-4,-71.647 v -71.646 -6.266 l 0.014,-65.386 0.016,-71.654 0.014,-71.653 0.015,-71.652 0.015,-71.654 0.015,-71.653 0.015,-71.652 0.015,-71.653 19.267,-7.813 47.281,-18.928 66.667,-26.687 66.667,-26.689 66.667,-26.688 66.667,-26.689 66.668,-26.688 66.667,-26.689 66.667,-26.688 0.26,-0.104 66.407,26.585 66.667,26.689 66.667,26.688 66.667,26.689 66.668,26.688 66.667,26.69 66.668,26.688 42.469,17.002 24.198,9.811 v 71.647 71.647 71.648 71.646 71.647 l 0.001,71.647 v 71.647 71.647 71.647 71.647 z" /></g></g></g></g></g></g><g
       transform="translate(1216.667,1168.4082)"
       id="g92"><path
         id="path94"
         style="fill:#ffffff;fill-opacity:1;fill-rule:nonzero;stroke:none"
         d="m 0,0 v 0.147 l -66.667,-27.033 -23.922,-9.7 -42.745,-17.264 -66.667,-26.924 -66.668,-26.925 -66.667,-26.925 -66.668,-26.924 -66.445,-26.836 -0.222,0.09 -66.667,26.913 -66.667,26.913 -66.667,26.912 -66.667,26.913 -66.667,26.913 -5.211,2.103 -61.457,24.92 -66.667,27.034 -10e-4,-71.647 v -71.647 -71.647 -71.646 -71.647 -71.648 -71.646 -71.647 -73.31 l 66.668,-27.033 66.667,-27.034 66.667,-27.033 66.667,-27.033 66.667,-27.033 66.668,-27.033 66.667,-27.033 0.222,-0.09 66.445,26.942 66.667,27.034 66.667,27.033 66.667,27.033 66.667,27.033 66.667,27.034 66.668,27.033 v 1.815 l 0.01,0.003 v 71.496 71.647 71.647 71.647 71.646 71.647 71.647 71.647 71.499 z" /></g></g></svg>