<?xml version="1.0" encoding="UTF-8" standalone="no"?>
<svg
   xmlns:dc="http://purl.org/dc/elements/1.1/"
   xmlns:cc="http://creativecommons.org/ns#"
   xmlns:rdf="http://www.w3.org/1999/02/22-rdf-syntax-ns#"
   xmlns:svg="http://www.w3.org/2000/svg"
   xmlns="http://www.w3.org/2000/svg"
   viewBox="0 0 2560 1333.3333"
   height="1333.3333"
   width="2560"
   xml:space="preserve"
   id="svg2"
   version="1.1"><metadata
     id="metadata8"><rdf:RDF><cc:Work
         rdf:about=""><dc:format>image/svg+xml</dc:format><dc:type
           rdf:resource="http://purl.org/dc/dcmitype/StillImage" /></cc:Work></rdf:RDF></metadata><defs
     id="defs6"><clipPath
       id="clipPath54"
       clipPathUnits="userSpaceOnUse"><path
         id="path52"
         d="M 0,1000 H 1920 V 0 H 0 Z" /></clipPath><clipPath
       id="clipPath62"
       clipPathUnits="userSpaceOnUse"><path
         id="path60"
         d="M 709.706,862.979 H 1184.44 V 419.88 H 709.706 Z" /></clipPath><clipPath
       id="clipPath82"
       clipPathUnits="userSpaceOnUse"><path
         id="path80"
         d="m 1131.69,845.436 h 26.38 V 806.41 h -26.38 z" /></clipPath><clipPath
       id="clipPath98"
       clipPathUnits="userSpaceOnUse"><path
         id="path96"
         d="m 736.078,845.516 h 26.375 v -39.035 h -26.375 z" /></clipPath><clipPath
       id="clipPath114"
       clipPathUnits="userSpaceOnUse"><path
         id="path112"
         d="M 736.078,834.825 H 1158.07 V 449.185 H 736.078 Z" /></clipPath></defs><g
     transform="matrix(1.3333333,0,0,-1.3333333,0,1333.3333)"
     id="g10"><g
       transform="translate(146,172.7715)"
       id="g12"><path
         id="path14"
         style="fill:#ffffff;fill-opacity:1;fill-rule:nonzero;stroke:none"
         d="M 0,0 V 121.6 H 98.035 V 105.432 H 18.843 V 68.614 H 89.468 V 54.056 H 18.843 V 16.169 h 81.976 V 0 Z" /></g><g
       transform="translate(334.4756,172.7715)"
       id="g16"><path
         id="path18"
         style="fill:#ffffff;fill-opacity:1;fill-rule:nonzero;stroke:none"
         d="M 0,0 V 121.6 H 18.843 V 16.169 H 96.997 V 0 Z" /></g><g
       transform="translate(518.7344,172.7715)"
       id="g20"><path
         id="path22"
         style="fill:#ffffff;fill-opacity:1;fill-rule:nonzero;stroke:none"
         d="M 0,0 V 121.6 H 98.035 V 105.432 H 18.843 V 68.614 H 89.468 V 54.056 H 18.843 V 16.169 h 81.976 V 0 Z" /></g><g
       transform="translate(816.1099,172.7715)"
       id="g24"><path
         id="path26"
         style="fill:#ffffff;fill-opacity:1;fill-rule:nonzero;stroke:none"
         d="M 0,0 V 98.939 L -35.394,0 H -63.076 L -98.062,99.05 V 0 h -18.843 v 121.6 h 31.264 L -49.299,17.052 -12.421,121.6 h 31.158 l 0,-121.6 z" /></g><g
       transform="translate(914.0776,172.7715)"
       id="g28"><path
         id="path30"
         style="fill:#ffffff;fill-opacity:1;fill-rule:nonzero;stroke:none"
         d="M 0,0 V 121.6 H 98.035 V 105.432 H 18.843 V 68.614 H 89.468 V 54.056 H 18.843 V 16.169 h 81.976 V 0 Z" /></g><g
       transform="translate(1191.6875,172.7715)"
       id="g32"><path
         id="path34"
         style="fill:#ffffff;fill-opacity:1;fill-rule:nonzero;stroke:none"
         d="M 0,0 -81.394,91.479 V 0 h -18.842 v 121.6 h 18.842 L 0.677,27.72 0,121.6 H 18.843 V 0 Z" /></g><g
       transform="translate(1338.2217,278.2031)"
       id="g36"><path
         id="path38"
         style="fill:#ffffff;fill-opacity:1;fill-rule:nonzero;stroke:none"
         d="M 0,0 V -105.432 H -18.737 V 0 H -71.901 V 16.168 H 53.165 L 53.165,0 Z" /></g><g
       transform="translate(1507.1396,272.083)"
       id="g40"><path
         id="path42"
         style="fill:#ffffff;fill-opacity:1;fill-rule:nonzero;stroke:none"
         d="M 0,0 -30.671,-53.294 H 30.671 Z M 57.504,-100.063 41.287,-72.03 h -82.753 l -16.216,-28.033 H -79.5 L -8.806,23.039 h 17.43 l 70.691,-123.102 z" /></g><g
       transform="translate(1649.0039,172.7695)"
       id="g44"><path
         id="path46"
         style="fill:#ffffff;fill-opacity:1;fill-rule:nonzero;stroke:none"
         d="M 0,0 V 121.604 H 18.843 V 16.169 H 96.996 L 96.996,0 Z" /></g><g
       id="g48"><g
         clip-path="url(#clipPath54)"
         id="g50"><g
           id="g56"><g
             id="g58" /><g
             id="g74"><g
               style="opacity:0.30000299"
               id="g72"
               clip-path="url(#clipPath62)"><g
                 id="g66"
                 transform="translate(815.1997,813.2896)"><path
                   id="path64"
                   style="fill:#ffffff;fill-opacity:1;fill-rule:nonzero;stroke:none"
                   d="m 0,0 26.375,-10.689 26.374,-10.69 26.374,-10.689 26.375,-10.689 26.374,-10.69 0.102,-0.041 26.273,10.648 26.374,10.69 26.374,10.69 26.374,10.689 26.375,10.689 10.608,4.3 15.766,6.393 26.374,10.695 10e-4,28.277 L 290.118,38.871 263.744,28.158 237.369,17.446 210.995,6.733 184.621,-3.979 158.247,-14.691 131.989,-25.356 131.872,-25.309 105.498,-14.595 79.123,-3.88 52.749,6.833 26.375,17.548 0,28.262 -26.374,38.976 -52.749,49.69 V 21.379 l 26.375,-10.69 z" /></g><g
                 id="g70"
                 transform="translate(1184.4385,629.229)"><path
                   id="path68"
                   style="fill:#ffffff;fill-opacity:1;fill-rule:nonzero;stroke:none"
                   d="m 0,0 -0.001,28.344 -0.001,28.344 -0.002,28.344 -0.001,28.343 -0.001,28.345 -0.001,28.343 -0.002,28.344 -26.356,-10.687 0.004,-28.343 0.004,-28.343 0.003,-28.343 0.004,-28.342 0.004,-28.343 0.005,-28.343 0.004,-28.343 0.004,-28.342 0.003,-28.343 0.005,-28.343 v -0.05 l -0.048,-0.019 -9.573,-3.832 -16.801,-6.726 -26.375,-10.558 -26.374,-10.559 -26.374,-10.558 -26.375,-10.559 -26.374,-10.557 -26.374,-10.559 -26.272,-10.518 -0.103,0.041 -26.374,10.559 -26.374,10.559 -26.375,10.557 -26.374,10.559 -26.374,10.558 -26.375,10.558 -26.374,10.559 -18.705,7.487 -7.622,3.052 v 0.039 l -0.047,0.019 v 28.344 28.345 28.344 28.345 28.344 28.344 28.344 25.866 2.479 l -0.006,28.347 -0.006,28.346 -26.359,10.689 V 170.137 141.792 113.448 85.104 56.759 28.415 0.07 -28.274 -56.618 -84.963 -113.307 l 16.512,-6.695 9.859,-3.987 26.374,-10.664 26.374,-10.664 26.375,-10.664 26.374,-10.664 26.374,-10.664 26.375,-10.664 26.374,-10.664 26.374,-10.664 0.118,-0.048 26.257,10.617 26.374,10.664 26.374,10.665 26.375,10.665 26.374,10.664 26.374,10.665 26.375,10.665 19.605,7.928 6.769,2.744 26.375,10.695 v 28.344 28.345 28.003 0.341 z" /></g></g></g></g><g
           id="g76"><g
             id="g78" /><g
             id="g90"><g
               style="opacity:0.30000299"
               id="g88"
               clip-path="url(#clipPath82)"><g
                 id="g86"
                 transform="translate(1131.6934,806.4097)"><path
                   id="path84"
                   style="fill:#ffffff;fill-opacity:1;fill-rule:nonzero;stroke:none"
                   d="M 0,0 26.374,10.695 V 39.026 L 0,28.336 Z" /></g></g></g></g><g
           id="g92"><g
             id="g94" /><g
             id="g106"><g
               style="opacity:0.30000299"
               id="g104"
               clip-path="url(#clipPath98)"><g
                 id="g102"
                 transform="translate(762.4526,806.4805)"><path
                   id="path100"
                   style="fill:#ffffff;fill-opacity:1;fill-rule:nonzero;stroke:none"
                   d="m 0,0 v 28.344 l -9.94,4.031 -16.434,6.661 V 10.695 Z" /></g></g></g></g><g
           id="g108"><g
             id="g110" /><g
             id="g126"><g
               style="opacity:0.80000299"
               id="g124"
               clip-path="url(#clipPath114)"><g
                 id="g118"
                 transform="translate(813.1401,785.9272)"><path
                   id="path116"
                   style="fill:#ffffff;fill-opacity:1;fill-rule:nonzero;stroke:none"
                   d="m 0,0 2.062,-0.832 26.374,-10.647 26.374,-10.647 26.374,-10.647 26.375,-10.647 26.374,-10.647 0.088,-0.036 26.286,10.617 26.374,10.652 26.375,10.651 26.374,10.652 26.374,10.652 16.911,6.829 9.464,3.838 26.374,10.694 V 48.819 L 292.179,38.129 276.414,31.739 265.804,27.437 239.43,16.743 213.056,6.048 186.681,-4.646 160.307,-15.341 134.021,-26 133.933,-25.965 107.559,-15.27 81.184,-4.576 54.81,6.119 28.436,16.814 2.062,27.508 -24.313,38.203 -50.688,48.898 V 20.553 L -24.313,9.859 Z" /></g><g
                 id="g122"
                 transform="translate(1131.6934,806.4097)"><path
                   id="path120"
                   style="fill:#ffffff;fill-opacity:1;fill-rule:nonzero;stroke:none"
                   d="m 0,0 v -0.058 l 0.004,0.001 v -28.286 -28.345 -28.344 -28.344 -28.344 -28.345 -28.344 -28.344 -28.285 L 0,-255.04 v -0.06 l -26.375,-10.694 -26.374,-10.695 -26.375,-10.695 -26.374,-10.694 -26.374,-10.695 -26.374,-10.694 -26.287,-10.659 -0.088,0.035 -26.374,10.695 -26.375,10.695 -26.374,10.694 -26.374,10.695 -26.375,10.695 -26.374,10.694 -26.374,10.695 v 28.344 28.345 28.344 28.344 28.345 28.344 28.344 28.345 28.344 l -26.374,10.695 v -28.345 -28.344 -2.479 l 0.005,-25.868 0.006,-28.346 0.006,-28.347 0.006,-28.347 0.006,-28.347 0.006,-28.346 0.006,-28.347 0.006,-28.347 7.622,-3.091 18.705,-7.488 26.374,-10.558 26.374,-10.558 26.375,-10.559 26.374,-10.557 26.374,-10.559 26.375,-10.558 26.374,-10.558 0.103,-0.041 26.272,10.516 26.374,10.559 26.374,10.559 26.374,10.557 26.375,10.559 26.374,10.558 26.375,10.559 16.801,6.726 9.573,3.881 v 28.345 28.344 28.345 28.344 28.345 28.344 28.345 28.344 28.344 28.345 z" /></g></g></g></g></g></g><g
       transform="translate(1131.6924,806.9565)"
       id="g128"><path
         id="path130"
         style="fill:#ffffff;fill-opacity:1;fill-rule:nonzero;stroke:none"
         d="m 0,0 v 0.059 l -26.375,-10.695 -9.464,-3.838 -16.91,-6.829 -26.374,-10.652 -26.375,-10.652 -26.374,-10.651 -26.374,-10.652 -26.287,-10.616 -0.088,0.035 -26.374,10.647 -26.375,10.647 -26.374,10.647 -26.374,10.647 -26.375,10.647 -2.061,0.832 -24.313,9.859 -26.374,10.694 -0.001,-28.344 v -28.344 -28.345 -28.344 -28.344 -28.345 -28.344 -28.344 -29.002 l 26.375,-10.695 26.374,-10.695 26.374,-10.694 26.375,-10.695 26.374,-10.695 26.374,-10.694 26.375,-10.695 0.088,-0.036 26.286,10.659 26.374,10.695 26.375,10.694 26.374,10.695 26.374,10.695 26.375,10.694 26.374,10.695 v 0.718 l 0.004,0.002 v 28.284 28.344 28.345 28.344 28.345 28.344 28.344 28.344 28.286 z" /></g></g></svg>